<?xml version="1.0" encoding="utf-8"?>
<!-- Generator: Adobe Illustrator 21.0.0, SVG Export Plug-In . SVG Version: 6.00 Build 0)  -->
<svg version="1.1" id="Layer_1" xmlns="http://www.w3.org/2000/svg" xmlns:xlink="http://www.w3.org/1999/xlink" x="0px" y="0px"
	 viewBox="0 0 1117.4 332.8" style="enable-background:new 0 0 1117.4 332.8;" xml:space="preserve">
<style type="text/css">
	.st0{fill:#006CB2;}
</style>
<path class="st0" d="M0,204.8c0-18,2.8-34.8,8.4-50.5c5.6-15.7,13.6-29.2,24-40.7c10.4-11.5,23-20.5,37.9-27
	c14.9-6.5,31.6-9.8,50.3-9.8c23,0,44.7,4.2,65.1,12.6l-12.1,46.1c-6.5-2.8-13.9-5.1-22.1-7c-8.2-1.9-17-2.8-26.3-2.8
	c-22,0-38.8,6.9-50.3,20.7c-11.5,13.8-17.2,33.3-17.2,58.4c0,24.2,5.4,43.4,16.3,57.5c10.9,14.1,29.2,21.2,54.9,21.2
	c9.6,0,19.1-0.9,28.4-2.8c9.3-1.9,17.4-4.2,24.2-7l7.9,46.5c-6.2,3.1-15.6,5.9-28.2,8.4c-12.6,2.5-25.5,3.7-38.9,3.7
	c-20.8,0-38.9-3.2-54.2-9.5c-15.4-6.4-28.1-15.2-38.2-26.5c-10.1-11.3-17.6-24.8-22.6-40.5C2.5,240.1,0,223.1,0,204.8"/>
<path class="st0" d="M365,204.3c0-24.2-5.2-43.4-15.6-57.5c-10.4-14.1-24.9-21.2-43.5-21.2c-18.6,0-33.1,7.1-43.5,21.2
	c-10.4,14.1-15.6,33.3-15.6,57.5c0,24.5,5.2,43.9,15.6,58.2c10.4,14.3,24.9,21.4,43.5,21.4c18.6,0,33.1-7.1,43.5-21.4
	C359.8,248.2,365,228.8,365,204.3 M422.7,204.3c0,19.2-2.8,36.8-8.4,52.6s-13.5,29.3-23.7,40.5c-10.2,11.2-22.6,19.9-37,26.1
	c-14.4,6.2-30.3,9.3-47.7,9.3c-17.4,0-33.2-3.1-47.5-9.3c-14.3-6.2-26.5-14.9-36.8-26.1c-10.2-11.2-18.2-24.7-24-40.5
	c-5.8-15.8-8.6-33.3-8.6-52.6c0-19.2,2.9-36.7,8.6-52.4c5.7-15.7,13.8-29.1,24.2-40.3c10.4-11.2,22.7-19.8,37-25.8
	c14.3-6,29.9-9.1,47-9.1c17.1,0,32.8,3,47.3,9.1c14.4,6.1,26.8,14.7,37,25.8c10.2,11.2,18.2,24.6,24,40.3
	C419.8,167.6,422.7,185.1,422.7,204.3"/>
<path class="st0" d="M600.8,203.9c0-23.9-4.7-42.8-14.2-56.8c-9.5-14-24.4-20.9-44.9-20.9c-9.3,0-18.1,1.4-26.3,4.2
	c-8.2,2.8-14.8,5.9-19.8,9.3v140.1c4,0.9,9.2,1.8,15.6,2.6c6.4,0.8,14,1.2,23,1.2c20.8,0,37.1-7,48.9-21.2
	C594.9,248.2,600.8,228.7,600.8,203.9 M658.5,204.8c0,19.6-2.9,37.2-8.6,52.8c-5.7,15.7-14,29.1-24.7,40.3
	c-10.7,11.2-23.7,19.7-38.9,25.6c-15.2,5.9-32.4,8.8-51.7,8.8c-18.6,0-36.4-1.4-53.3-4.2c-16.9-2.8-31-5.9-42.1-9.3V9.3L495.6,0
	v91.2c6.5-3.4,14.5-6.5,24-9.3c9.5-2.8,19.9-4.2,31.4-4.2c17.1,0,32.3,3,45.8,9.1c13.5,6.1,24.7,14.7,33.7,25.8
	c9,11.2,15.9,24.6,20.7,40.3C656.1,168.6,658.5,185.9,658.5,204.8"/>
<path class="st0" d="M775.2,286.7c17.4,0,30.6-0.9,39.6-2.8v-62.4c-3.1-0.9-7.6-1.9-13.5-2.8c-5.9-0.9-12.4-1.4-19.5-1.4
	c-6.2,0-12.5,0.5-18.9,1.4c-6.4,0.9-12.1,2.7-17.2,5.1c-5.1,2.5-9.2,6-12.3,10.5c-3.1,4.5-4.7,10.2-4.7,17
	c0,13.3,4.2,22.6,12.6,27.7C749.6,284.2,760.9,286.7,775.2,286.7 M770.5,76.8c18.6,0,34.3,2.3,47,7c12.7,4.7,22.9,11.2,30.5,19.6
	c7.6,8.4,13,18.5,16.3,30.5c3.3,11.9,4.9,25.1,4.9,39.3v147.5c-8.7,1.9-21.8,4.1-39.3,6.7c-17.5,2.6-37.3,4-59.3,4
	c-14.6,0-27.9-1.4-40-4.2c-12.1-2.8-22.4-7.3-31-13.5c-8.5-6.2-15.2-14.3-20-24.2c-4.8-9.9-7.2-22.2-7.2-36.8
	c0-14,2.7-25.8,8.1-35.4c5.4-9.6,12.8-17.4,22.1-23.5c9.3-6,20.1-10.4,32.3-13c12.3-2.6,25.1-4,38.4-4c6.2,0,12.7,0.4,19.5,1.2
	c6.8,0.8,14.1,2.1,21.9,4v-9.3c0-6.5-0.8-12.7-2.3-18.6c-1.6-5.9-4.3-11.1-8.2-15.6s-9-8-15.4-10.5c-6.4-2.5-14.4-3.7-24-3.7
	c-13,0-25,0.9-35.8,2.8c-10.9,1.9-19.7,4-26.5,6.5l-7-45.6c7.1-2.5,17.5-5,31.2-7.5C740.4,78.1,755,76.8,770.5,76.8"/>
<path class="st0" d="M988.8,330.9c-16.8-0.3-30.6-2.2-41.7-5.6c-11-3.4-19.8-8.3-26.3-14.6c-6.5-6.4-11.1-14.3-13.7-23.7
	c-2.6-9.5-4-20.2-4-32.3V9.3L959.5,0v243.9c0,6.8,0.5,12.6,1.6,17.2c1.1,4.7,3,8.6,5.8,11.9c2.8,3.2,6.6,5.8,11.4,7.5
	c4.8,1.7,10.9,3,18.4,4L988.8,330.9z"/>
<path class="st0" d="M1117.4,129.4v-47h-46.5V0.7l-56.3,9.3v245.3c0,12.1,1.3,22.9,4,32.3c2.6,9.5,7.2,17.4,13.7,23.7
	c6.5,6.4,15.3,11.2,26.3,14.7c11,3.4,24.9,5.3,41.7,5.6l7.9-46.5c-7.5-0.9-13.6-2.2-18.4-4c-4.8-1.7-8.6-4.2-11.4-7.4
	c-2.8-3.3-4.7-7.2-5.8-11.9c-1.1-4.7-1.6-10.4-1.6-17.2V129.4H1117.4z"/>
</svg>
